<svg width="16" height="20" viewBox="0 0 16 20" fill="none" xmlns="http://www.w3.org/2000/svg">
<path d="M15.3077 3.71795H12.0231C11.858 3.71795 11.718 3.59876 11.718 3.43349V0H0.692307V20H15.3077V3.71795ZM8.17094 4.1059C8.17361 3.94414 8.30232 3.81277 8.46408 3.80676C8.48928 3.80592 8.51449 3.80676 8.5397 3.8096C9.6438 3.91543 10.691 4.34879 11.5473 5.05375C11.6124 5.10734 11.652 5.1858 11.6562 5.2701C11.6604 5.35423 11.6288 5.43637 11.5692 5.49613L9.60257 7.46962C9.50291 7.56978 9.34666 7.58647 9.22813 7.50968C8.99426 7.35794 8.73451 7.25077 8.46174 7.19334C8.39163 7.18884 8.32485 7.16096 8.27244 7.11422C8.21 7.05813 8.17328 6.979 8.17094 6.8952V4.1059ZM2.44094 8.86836C2.69885 6.20459 4.78753 4.0812 7.40522 3.81944C7.49019 3.81143 7.57465 3.83881 7.63876 3.89523C7.70286 3.95149 7.74075 4.03178 7.74359 4.11709V6.90555C7.74075 7.04694 7.64026 7.16747 7.5017 7.19568C6.68089 7.3743 6.0013 8.07943 5.82018 8.95366C5.79113 9.09171 5.66844 9.18987 5.52738 9.18803H2.73725C2.65361 9.18954 2.57332 9.15532 2.51639 9.09405C2.46014 9.03312 2.43259 8.95099 2.44094 8.86836ZM2.50504 9.68967C2.56113 9.62607 2.64143 9.58868 2.72623 9.58667L5.52204 9.57265H5.52254C5.66577 9.57682 5.78696 9.67915 5.81534 9.81938C5.9973 10.6863 6.67121 11.3654 7.53659 11.5542C7.53993 11.555 7.54344 11.5557 7.54678 11.5565C7.61488 11.5737 7.7733 11.639 7.77381 11.8775V11.968C7.77381 12.0449 7.77297 12.1541 7.7723 12.2855C7.7708 12.5476 7.7683 12.897 7.76579 13.2464C7.76062 13.9448 7.75511 14.6431 7.75511 14.6431C7.75377 14.8074 7.62023 14.9399 7.45596 14.9399C7.44595 14.9399 7.4361 14.9394 7.42592 14.9384C4.77935 14.667 2.68984 12.5694 2.42892 9.92171C2.42074 9.83707 2.44828 9.75311 2.50504 9.68967ZM8.64904 16.3675C8.81414 16.3675 8.94818 16.5014 8.94818 16.6667C8.94818 16.8319 8.81414 16.9658 8.64904 16.9658H2.89032C2.72506 16.9658 2.59118 16.8319 2.59118 16.6667C2.59118 16.5014 2.72506 16.3675 2.89032 16.3675H8.64904ZM12.8309 18.547H2.89032C2.72506 18.547 2.59118 18.4131 2.59118 18.2479C2.59118 18.0826 2.72506 17.9487 2.89032 17.9487H12.8309C12.9962 17.9487 13.13 18.0826 13.13 18.2479C13.13 18.4131 12.9962 18.547 12.8309 18.547ZM13.5684 9.97696C13.3052 12.6088 11.1956 14.705 8.55172 14.9619C8.54821 14.9623 8.54471 14.9628 8.5412 14.9629C8.45656 14.9725 8.37193 14.9452 8.30866 14.8883C8.24539 14.8314 8.20934 14.7501 8.20967 14.665L8.22135 11.874C8.22202 11.7328 8.32152 11.6116 8.4599 11.5834C9.31026 11.4071 10.0044 10.7275 10.1865 9.88849C10.217 9.7521 10.3391 9.65562 10.479 9.65779H13.2708C13.3546 9.65595 13.4352 9.68984 13.4925 9.7511C13.5492 9.81203 13.5769 9.89433 13.5684 9.97696ZM13.5712 8.91643C13.5587 9.07135 13.4284 9.18987 13.2731 9.18803H10.4841C10.3429 9.18987 10.2202 9.09155 10.1912 8.95333C10.1331 8.67221 10.0237 8.40428 9.86866 8.16273C9.7932 8.04471 9.8099 7.88996 9.90889 7.7908L11.882 5.8108C11.9416 5.75087 12.0239 5.71915 12.1084 5.72316C12.1929 5.72716 12.2717 5.76689 12.3253 5.83216C13.029 6.6877 13.4621 7.73337 13.5687 8.83597C13.5726 8.86268 13.5734 8.88972 13.5712 8.91643Z" fill="#2B2B42"/>
</svg>
