<svg width="18" height="20" viewBox="0 0 18 20" fill="none" xmlns="http://www.w3.org/2000/svg">
    <path d="M14.2137 6.44073L17.0704 2.07016C17.0704 2.07016 18.0198 0.819569 17.4483 0.192503C16.8779 -0.434564 15.6273 0.669593 15.6273 0.669593L11.7303 4.75438L2.39395 4.21116L0.707606 6.03095L8.76618 8.6396L4.8479 14.7426C4.7428 14.8772 4.64596 15.0095 4.5633 15.1394L1.56849 14.3151L0.368683 15.8337L3.59022 16.8741L3.73311 16.9875L4.20548 17.3583L4.61762 17.6842L6.19414 20L7.30539 18.5924L5.49268 15.8574C5.56235 15.7983 5.6273 15.731 5.68635 15.6566L11.0701 10.2952L11.1599 10.3661L16.0796 17.8071L17.2841 15.9613L14.2409 6.46317L14.2137 6.44073Z"
          fill="#2B2B42"/>
</svg>
