<svg width="20" height="20" viewBox="0 0 20 20" fill="none" xmlns="http://www.w3.org/2000/svg">
<g clip-path="url(#clip0)">
<path d="M7.28673 11.0339C7.28673 10.7834 7.08351 10.5804 6.83277 10.5804H5.24863C4.99818 10.5804 4.79492 10.7834 4.79492 11.0339V12.6178C4.79492 12.8687 4.99818 13.0717 5.24863 13.0717H6.83277C7.08351 13.0717 7.28673 12.8687 7.28673 12.6178V11.0339Z" fill="#5B9BD1" fill-opacity="0.5"/>
<path d="M11.2458 11.0339C11.2458 10.7834 11.0426 10.5804 10.7923 10.5804H9.20798C8.95753 10.5804 8.75427 10.7834 8.75427 11.0339V12.6178C8.75427 12.8687 8.95753 13.0717 9.20798 13.0717H10.7923C11.0426 13.0717 11.2458 12.8687 11.2458 12.6178V11.0339Z" fill="#5B9BD1" fill-opacity="0.5"/>
<path d="M15.2049 11.0339C15.2049 10.7834 15.0017 10.5804 14.7512 10.5804H13.1671C12.9163 10.5804 12.7131 10.7834 12.7131 11.0339V12.6178C12.7131 12.8687 12.9163 13.0717 13.1671 13.0717H14.7512C15.0017 13.0717 15.2049 12.8687 15.2049 12.6178V11.0339Z" fill="#5B9BD1" fill-opacity="0.5"/>
<path d="M7.28673 14.9932C7.28673 14.7423 7.08351 14.5395 6.83277 14.5395H5.24863C4.99818 14.5395 4.79492 14.7423 4.79492 14.9932V16.5769C4.79492 16.8276 4.99818 17.0306 5.24863 17.0306H6.83277C7.08351 17.0306 7.28673 16.8275 7.28673 16.5769V14.9932Z" fill="#5B9BD1" fill-opacity="0.5"/>
<path d="M11.2458 14.9932C11.2458 14.7423 11.0426 14.5395 10.7923 14.5395H9.20798C8.95753 14.5395 8.75427 14.7423 8.75427 14.9932V16.5769C8.75427 16.8276 8.95753 17.0306 9.20798 17.0306H10.7923C11.0426 17.0306 11.2458 16.8275 11.2458 16.5769V14.9932Z" fill="#5B9BD1" fill-opacity="0.5"/>
<path d="M15.2049 14.9932C15.2049 14.7423 15.0017 14.5395 14.7514 14.5395H13.1671C12.9163 14.5395 12.7131 14.7423 12.7131 14.9932V16.5769C12.7131 16.8276 12.9163 17.0306 13.1671 17.0306H14.7514C15.0017 17.0306 15.2049 16.8275 15.2049 16.5769V14.9932Z" fill="#4066D5" fill-opacity="0.5"/>
<path d="M18.0376 2.22695V4.64628C18.0376 5.73979 17.1505 6.62099 16.0571 6.62099H14.8078C13.7144 6.62099 12.8155 5.73979 12.8155 4.64628V2.21826H7.18447V4.64628C7.18447 5.73979 6.28565 6.62099 5.19239 6.62099H3.94282C2.84951 6.62099 1.96245 5.73979 1.96245 4.64628V2.22695C1.00689 2.25575 0.22168 3.04645 0.22168 4.01832V18.1967C0.22168 19.1869 1.02422 20.0001 2.01436 20.0001H17.9856C18.9743 20.0001 19.7783 19.1852 19.7783 18.1967V4.01832C19.7783 3.04645 18.9931 2.25575 18.0376 2.22695ZM17.4573 17.3138C17.4573 17.7417 17.1104 18.0889 16.6823 18.0889H3.28355C2.85549 18.0889 2.50855 17.7417 2.50855 17.3138V9.99014C2.50855 9.56208 2.85545 9.21494 3.28355 9.21494H16.6822C17.1103 9.21494 17.4573 9.56208 17.4573 9.99014L17.4573 17.3138Z" fill="#5D78FF" fill-opacity="0.65"/>
<path d="M3.93837 5.32396H5.17413C5.54922 5.32396 5.85335 5.02028 5.85335 4.64519V0.67901C5.85335 0.303881 5.54922 0 5.17413 0H3.93837C3.56324 0 3.25916 0.303881 3.25916 0.67901V4.64519C3.25916 5.02028 3.56324 5.32396 3.93837 5.32396Z" fill="#5B9BD1" fill-opacity="0.5"/>
<path d="M14.792 5.32396H16.0277C16.4026 5.32396 16.7067 5.02028 16.7067 4.64519V0.67901C16.7067 0.303881 16.4026 0 16.0277 0H14.792C14.4169 0 14.1128 0.303881 14.1128 0.67901V4.64519C14.1128 5.02028 14.4169 5.32396 14.792 5.32396Z" fill="#5B9BD1" fill-opacity="0.5"/>
</g>
<defs>
<clipPath id="clip0">
<rect width="20" height="20" fill="white"/>
</clipPath>
</defs>
</svg>
