<svg width="20" height="20" viewBox="0 0 20 20" fill="none" xmlns="http://www.w3.org/2000/svg">
<g clip-path="url(#clip0)">
<path d="M20 4.61517H0V6.15345H20V4.61517Z" fill="#F5F5F5"/>
<path d="M18.9557 1.53845H1.04448C0.665259 1.9833 0.373423 2.5049 0.195923 3.07693H19.8043C19.6268 2.5049 19.3349 1.9833 18.9557 1.53845Z" fill="#F5F5F5"/>
<path d="M20 7.69214H0V9.23042H20V7.69214Z" fill="#F5F5F5"/>
<path d="M20 10.7691H0V12.3074H20V10.7691Z" fill="#F5F5F5"/>
<path d="M20 13.8461H0V15.3844H20V13.8461Z" fill="#F5F5F5"/>
<path d="M19.8043 16.923H0.195923C0.373384 17.4951 0.665259 18.0166 1.04448 18.4615H18.9557C19.3349 18.0166 19.6268 17.4951 19.8043 16.923Z" fill="#F5F5F5"/>
<path d="M15.6251 0H4.37506C3.04115 0 1.84689 0.597148 1.04443 1.53848H18.9556C18.1532 0.597148 16.959 0 15.6251 0Z" fill="#FF4B55"/>
<path d="M20 6.15393H0V7.69221H20V6.15393Z" fill="#FF4B55"/>
<path d="M20 4.37501C20 3.92302 19.9314 3.48708 19.8042 3.07697H0.19582C0.0685547 3.48708 0 3.92302 0 4.37501V4.6154H20V4.37501Z" fill="#FF4B55"/>
<path d="M20 9.23083H0V10.7691H20V9.23083Z" fill="#FF4B55"/>
<path d="M20 15.625V15.3846H0V15.625C0 16.077 0.0685547 16.5129 0.19582 16.9231H19.8042C19.9314 16.5129 20 16.077 20 15.625Z" fill="#FF4B55"/>
<path d="M18.9557 18.4615H1.04443C1.84689 19.4029 3.04115 20 4.37506 20H15.6251C16.959 20 18.1532 19.4029 18.9557 18.4615Z" fill="#FF4B55"/>
<path d="M20 12.3078H0V13.8461H20V12.3078Z" fill="#FF4B55"/>
<path d="M10.7692 0H4.375C1.95875 0 0 1.95875 0 4.375V10.7692H10.7692V0Z" fill="#41479B"/>
<path d="M1.16191 1.68217C1.15167 1.71455 1.18851 1.74135 1.21616 1.72158L1.42956 1.56908L1.64296 1.72158C1.67058 1.74135 1.70745 1.71455 1.69722 1.68217L1.61812 1.43209L1.82913 1.27627C1.85643 1.25608 1.84237 1.21276 1.80839 1.21248L1.54612 1.21045L1.50136 1.07623C1.38894 1.17424 1.28171 1.27799 1.17987 1.38686L1.24108 1.43209L1.16191 1.68217Z" fill="#F5F5F5"/>
<path d="M1.46308 3.03729L1.54605 3.28612L1.80831 3.28815C1.84226 3.28843 1.85636 3.33175 1.82906 3.35194L1.61804 3.50776L1.69714 3.75784C1.70738 3.79022 1.67054 3.81698 1.64288 3.79725L1.42948 3.64471L1.21609 3.79725C1.18847 3.81702 1.15159 3.79022 1.16183 3.75784L1.24093 3.50776L1.02991 3.35194C1.00261 3.33178 1.01667 3.28843 1.05062 3.28815L1.31288 3.28612L1.39585 3.03729C1.40675 3.00507 1.45234 3.00507 1.46308 3.03729Z" fill="#F5F5F5"/>
<path d="M1.46308 5.33936L1.54605 5.58818L1.80831 5.59021C1.84226 5.59049 1.85636 5.63381 1.82906 5.654L1.61804 5.80982L1.69714 6.0599C1.70738 6.09228 1.67054 6.11904 1.64288 6.09932L1.42948 5.94682L1.21609 6.09932C1.18847 6.11904 1.15159 6.09228 1.16183 6.0599L1.24093 5.80982L1.02991 5.654C1.00261 5.63385 1.01667 5.59049 1.05062 5.59021L1.31288 5.58818L1.39585 5.33936C1.40675 5.30713 1.45234 5.30713 1.46308 5.33936Z" fill="#F5F5F5"/>
<path d="M1.46308 7.45447L1.54605 7.7033L1.80831 7.70533C1.84226 7.7056 1.85636 7.74892 1.82906 7.76912L1.61804 7.92494L1.69714 8.17501C1.70738 8.2074 1.67054 8.23416 1.64288 8.21443L1.42948 8.06189L1.21609 8.21443C1.18847 8.23416 1.15159 8.2074 1.16183 8.17501L1.24093 7.92494L1.02991 7.76912C1.00261 7.74896 1.01667 7.7056 1.05062 7.70533L1.31288 7.7033L1.39585 7.45447C1.40675 7.42224 1.45234 7.42224 1.46308 7.45447Z" fill="#F5F5F5"/>
<path d="M1.46308 9.37915L1.54605 9.62797L1.80831 9.63C1.84226 9.63028 1.85636 9.6736 1.82906 9.69379L1.61804 9.84961L1.69714 10.0997C1.70738 10.1321 1.67054 10.1588 1.64288 10.1391L1.42948 9.9866L1.21609 10.1391C1.18847 10.1588 1.15159 10.1321 1.16183 10.0997L1.24093 9.84961L1.02991 9.69379C1.00261 9.67364 1.01667 9.63028 1.05062 9.63L1.31288 9.62797L1.39585 9.37915C1.40675 9.34692 1.45234 9.34692 1.46308 9.37915Z" fill="#F5F5F5"/>
<path d="M2.47333 1.94458L2.5563 2.19341L2.81857 2.19544C2.85251 2.19571 2.86661 2.23903 2.83931 2.25919L2.62829 2.41501L2.7074 2.66509C2.71763 2.69747 2.68079 2.72427 2.65314 2.7045L2.43982 2.55196L2.22642 2.7045C2.1988 2.72427 2.16193 2.69747 2.17216 2.66509L2.25126 2.41501L2.04029 2.25919C2.01298 2.23903 2.02705 2.19567 2.06099 2.19544L2.32326 2.19341L2.40622 1.94458C2.41701 1.91235 2.46259 1.91235 2.47333 1.94458Z" fill="#F5F5F5"/>
<path d="M2.47329 4.24664L2.55626 4.49547L2.81852 4.4975C2.85247 4.49778 2.86657 4.5411 2.83926 4.56129L2.62825 4.71711L2.70735 4.96719C2.71759 4.99957 2.68075 5.02637 2.65309 5.0066L2.4397 4.85407L2.2263 5.0066C2.19868 5.02637 2.16181 4.99957 2.17204 4.96719L2.25114 4.71711L2.04017 4.56129C2.01286 4.54114 2.02692 4.49778 2.06087 4.4975L2.32313 4.49547L2.4061 4.24664C2.41696 4.21442 2.46255 4.21442 2.47329 4.24664Z" fill="#F5F5F5"/>
<path d="M2.47329 6.43381L2.55626 6.68264L2.81852 6.68467C2.85247 6.68494 2.86657 6.72826 2.83926 6.74846L2.62825 6.90428L2.70735 7.15436C2.71759 7.18674 2.68075 7.2135 2.65309 7.19377L2.4397 7.04123L2.2263 7.19377C2.19868 7.21353 2.16181 7.18674 2.17204 7.15436L2.25114 6.90428L2.04017 6.74846C2.01286 6.7283 2.02692 6.68494 2.06087 6.68467L2.32313 6.68264L2.4061 6.43381C2.41696 6.40162 2.46255 6.40162 2.47329 6.43381Z" fill="#F5F5F5"/>
<path d="M2.47329 8.39795L2.55626 8.64678L2.81852 8.64881C2.85247 8.64908 2.86657 8.6924 2.83926 8.7126L2.62825 8.86842L2.70735 9.1185C2.71759 9.15088 2.68075 9.17768 2.65309 9.15791L2.4397 9.00541L2.2263 9.15791C2.19868 9.17768 2.16181 9.15088 2.17204 9.1185L2.25114 8.86842L2.04017 8.7126C2.01286 8.69244 2.02692 8.64908 2.06087 8.64881L2.32313 8.64678L2.4061 8.39795C2.41696 8.36572 2.46255 8.36572 2.47329 8.39795Z" fill="#F5F5F5"/>
<path d="M3.48354 0.961641L3.56651 1.21047L3.82878 1.2125C3.86272 1.21277 3.87683 1.25609 3.84952 1.27625L3.63851 1.43207L3.71761 1.68215C3.72784 1.71453 3.691 1.74129 3.66335 1.72156L3.44995 1.56902L3.23655 1.72156C3.20894 1.74133 3.17206 1.71453 3.1823 1.68215L3.2614 1.43207L3.05042 1.27625C3.02312 1.25609 3.03718 1.21273 3.07112 1.2125L3.33339 1.21047L3.41636 0.961641C3.42722 0.929453 3.4728 0.929453 3.48354 0.961641Z" fill="#F5F5F5"/>
<path d="M3.48354 3.03729L3.56651 3.28612L3.82878 3.28815C3.86272 3.28843 3.87683 3.33175 3.84952 3.35194L3.63851 3.50776L3.71761 3.75784C3.72784 3.79022 3.691 3.81698 3.66335 3.79725L3.44995 3.64471L3.23655 3.79725C3.20894 3.81702 3.17206 3.79022 3.1823 3.75784L3.2614 3.50776L3.05042 3.35194C3.02312 3.33178 3.03718 3.28843 3.07112 3.28815L3.33339 3.28612L3.41636 3.03729C3.42722 3.00507 3.4728 3.00507 3.48354 3.03729Z" fill="#F5F5F5"/>
<path d="M3.48354 5.33936L3.56651 5.58818L3.82878 5.59021C3.86272 5.59049 3.87683 5.63381 3.84952 5.654L3.63851 5.80982L3.71761 6.0599C3.72784 6.09228 3.691 6.11904 3.66335 6.09932L3.44995 5.94682L3.23655 6.09932C3.20894 6.11904 3.17206 6.09228 3.1823 6.0599L3.2614 5.80982L3.05042 5.654C3.02312 5.63385 3.03718 5.59049 3.07112 5.59021L3.33339 5.58818L3.41636 5.33936C3.42722 5.30713 3.4728 5.30713 3.48354 5.33936Z" fill="#F5F5F5"/>
<path d="M3.48354 7.45447L3.56651 7.7033L3.82878 7.70533C3.86272 7.7056 3.87683 7.74892 3.84952 7.76912L3.63851 7.92494L3.71761 8.17501C3.72784 8.2074 3.691 8.23416 3.66335 8.21443L3.44995 8.06189L3.23655 8.21443C3.20894 8.23416 3.17206 8.2074 3.1823 8.17501L3.2614 7.92494L3.05042 7.76912C3.02312 7.74896 3.03718 7.7056 3.07112 7.70533L3.33339 7.7033L3.41636 7.45447C3.42722 7.42224 3.4728 7.42224 3.48354 7.45447Z" fill="#F5F5F5"/>
<path d="M3.48354 9.37915L3.56651 9.62797L3.82878 9.63C3.86272 9.63028 3.87683 9.6736 3.84952 9.69379L3.63851 9.84961L3.71761 10.0997C3.72784 10.1321 3.691 10.1588 3.66335 10.1391L3.44995 9.9866L3.23655 10.1391C3.20894 10.1588 3.17206 10.1321 3.1823 10.0997L3.2614 9.84961L3.05042 9.69379C3.02312 9.67364 3.03718 9.63028 3.07112 9.63L3.33339 9.62797L3.41636 9.37915C3.42722 9.34692 3.4728 9.34692 3.48354 9.37915Z" fill="#F5F5F5"/>
<path d="M4.49384 1.94458L4.57681 2.19341L4.83907 2.19544C4.87302 2.19571 4.88712 2.23903 4.85978 2.25919L4.6488 2.41501L4.7279 2.66509C4.73814 2.69747 4.7013 2.72427 4.67364 2.7045L4.46024 2.55196L4.24684 2.7045C4.21923 2.72427 4.18235 2.69747 4.19259 2.66509L4.27169 2.41501L4.06067 2.25919C4.03337 2.23903 4.04743 2.19567 4.08141 2.19544L4.34368 2.19341L4.42665 1.94458C4.43755 1.91235 4.4831 1.91235 4.49384 1.94458Z" fill="#F5F5F5"/>
<path d="M4.49384 4.24664L4.57681 4.49547L4.83907 4.4975C4.87302 4.49778 4.88712 4.5411 4.85978 4.56129L4.6488 4.71711L4.7279 4.96719C4.73814 4.99957 4.7013 5.02637 4.67364 5.0066L4.46024 4.85407L4.24684 5.0066C4.21923 5.02637 4.18235 4.99957 4.19259 4.96719L4.27169 4.71711L4.06067 4.56129C4.03337 4.54114 4.04743 4.49778 4.08141 4.4975L4.34368 4.49547L4.42665 4.24664C4.43755 4.21442 4.4831 4.21442 4.49384 4.24664Z" fill="#F5F5F5"/>
<path d="M4.49384 6.43381L4.57681 6.68264L4.83907 6.68467C4.87302 6.68494 4.88712 6.72826 4.85978 6.74846L4.6488 6.90428L4.7279 7.15436C4.73814 7.18674 4.7013 7.2135 4.67364 7.19377L4.46024 7.04123L4.24684 7.19377C4.21923 7.21353 4.18235 7.18674 4.19259 7.15436L4.27169 6.90428L4.06067 6.74846C4.03337 6.7283 4.04743 6.68494 4.08141 6.68467L4.34368 6.68264L4.42665 6.43381C4.43755 6.40162 4.4831 6.40162 4.49384 6.43381Z" fill="#F5F5F5"/>
<path d="M4.49384 8.39795L4.57681 8.64678L4.83907 8.64881C4.87302 8.64908 4.88712 8.6924 4.85978 8.7126L4.6488 8.86842L4.7279 9.1185C4.73814 9.15088 4.7013 9.17768 4.67364 9.15791L4.46024 9.00541L4.24684 9.15791C4.21923 9.17768 4.18235 9.15088 4.19259 9.1185L4.27169 8.86842L4.06067 8.7126C4.03337 8.69244 4.04743 8.64908 4.08141 8.64881L4.34368 8.64678L4.42665 8.39795C4.43755 8.36572 4.4831 8.36572 4.49384 8.39795Z" fill="#F5F5F5"/>
<path d="M5.50418 0.961641L5.58715 1.21047L5.84941 1.2125C5.88336 1.21277 5.89746 1.25609 5.87012 1.27625L5.65914 1.43207L5.73824 1.68215C5.74848 1.71453 5.71164 1.74129 5.68398 1.72156L5.47058 1.56902L5.25718 1.72156C5.22957 1.74133 5.19269 1.71453 5.20292 1.68215L5.28203 1.43207L5.07105 1.27625C5.04374 1.25609 5.05781 1.21273 5.09179 1.2125L5.35406 1.21047L5.43703 0.961641C5.44789 0.929453 5.49343 0.929453 5.50418 0.961641Z" fill="#F5F5F5"/>
<path d="M5.50413 3.0373L5.5871 3.28613L5.84937 3.28816C5.88331 3.28843 5.89741 3.33175 5.87007 3.35195L5.65909 3.50777L5.73823 3.7578C5.74847 3.79019 5.71163 3.81695 5.68398 3.79722L5.47058 3.64468L5.25718 3.79722C5.22956 3.81698 5.19269 3.79019 5.20292 3.7578L5.28202 3.50773L5.07105 3.35191C5.04374 3.33175 5.05781 3.28839 5.09179 3.28812L5.35406 3.28609L5.43702 3.03726C5.44784 3.00507 5.49339 3.00507 5.50413 3.0373Z" fill="#F5F5F5"/>
<path d="M5.50418 5.33936L5.58715 5.58818L5.84941 5.59021C5.88336 5.59049 5.89746 5.63381 5.87012 5.654L5.65914 5.80982L5.73824 6.0599C5.74848 6.09228 5.71164 6.11904 5.68398 6.09932L5.47058 5.94682L5.25718 6.09932C5.22957 6.11904 5.19269 6.09228 5.20292 6.0599L5.28203 5.80982L5.07105 5.654C5.04374 5.63385 5.05781 5.59049 5.09179 5.59021L5.35406 5.58818L5.43703 5.33936C5.44789 5.30713 5.49343 5.30713 5.50418 5.33936Z" fill="#F5F5F5"/>
<path d="M5.50418 7.45447L5.58715 7.7033L5.84941 7.70533C5.88336 7.7056 5.89746 7.74892 5.87012 7.76912L5.65914 7.92494L5.73824 8.17501C5.74848 8.2074 5.71164 8.23416 5.68398 8.21443L5.47058 8.06189L5.25718 8.21443C5.22957 8.23416 5.19269 8.2074 5.20292 8.17501L5.28203 7.92494L5.07105 7.76912C5.04374 7.74896 5.05781 7.7056 5.09179 7.70533L5.35406 7.7033L5.43703 7.45447C5.44789 7.42224 5.49343 7.42224 5.50418 7.45447Z" fill="#F5F5F5"/>
<path d="M5.50418 9.37915L5.58715 9.62797L5.84941 9.63C5.88336 9.63028 5.89746 9.6736 5.87012 9.69379L5.65914 9.84961L5.73824 10.0997C5.74848 10.1321 5.71164 10.1588 5.68398 10.1391L5.47058 9.9866L5.25718 10.1391C5.22957 10.1588 5.19269 10.1321 5.20292 10.0997L5.28203 9.84961L5.07105 9.69379C5.04374 9.67364 5.05781 9.63028 5.09179 9.63L5.35406 9.62797L5.43703 9.37915C5.44789 9.34692 5.49343 9.34692 5.50418 9.37915Z" fill="#F5F5F5"/>
<path d="M6.51447 1.94458L6.59743 2.19341L6.8597 2.19544C6.89364 2.19571 6.90775 2.23903 6.8804 2.25919L6.66939 2.41501L6.74849 2.66509C6.75872 2.69747 6.72185 2.72427 6.69423 2.7045L6.48083 2.55196L6.26744 2.7045C6.23982 2.72427 6.20294 2.69747 6.21318 2.66509L6.29228 2.41501L6.0813 2.25919C6.054 2.23903 6.06806 2.19567 6.10201 2.19544L6.36427 2.19341L6.44724 1.94458C6.45818 1.91235 6.50372 1.91235 6.51447 1.94458Z" fill="#F5F5F5"/>
<path d="M6.51447 4.24664L6.59743 4.49547L6.8597 4.4975C6.89364 4.49778 6.90775 4.5411 6.8804 4.56129L6.66939 4.71711L6.74849 4.96719C6.75872 4.99957 6.72185 5.02637 6.69423 5.0066L6.48083 4.85407L6.26744 5.0066C6.23982 5.02637 6.20294 4.99957 6.21318 4.96719L6.29228 4.71711L6.0813 4.56129C6.054 4.54114 6.06806 4.49778 6.10201 4.4975L6.36427 4.49547L6.44724 4.24664C6.45818 4.21442 6.50372 4.21442 6.51447 4.24664Z" fill="#F5F5F5"/>
<path d="M6.51447 6.43381L6.59743 6.68264L6.8597 6.68467C6.89364 6.68494 6.90775 6.72826 6.8804 6.74846L6.66939 6.90428L6.74849 7.15436C6.75872 7.18674 6.72185 7.2135 6.69423 7.19377L6.48083 7.04123L6.26744 7.19377C6.23982 7.21353 6.20294 7.18674 6.21318 7.15436L6.29228 6.90428L6.0813 6.74846C6.054 6.7283 6.06806 6.68494 6.10201 6.68467L6.36427 6.68264L6.44724 6.43381C6.45818 6.40162 6.50372 6.40162 6.51447 6.43381Z" fill="#F5F5F5"/>
<path d="M6.51447 8.39795L6.59743 8.64678L6.8597 8.64881C6.89364 8.64908 6.90775 8.6924 6.8804 8.7126L6.66939 8.86842L6.74849 9.1185C6.75872 9.15088 6.72185 9.17768 6.69423 9.15791L6.48083 9.00541L6.26744 9.15791C6.23982 9.17768 6.20294 9.15088 6.21318 9.1185L6.29228 8.86842L6.0813 8.7126C6.054 8.69244 6.06806 8.64908 6.10201 8.64881L6.36427 8.64678L6.44724 8.39795C6.45818 8.36572 6.50372 8.36572 6.51447 8.39795Z" fill="#F5F5F5"/>
<path d="M7.52476 0.961641L7.60773 1.21047L7.87 1.2125C7.90394 1.21277 7.91804 1.25609 7.8907 1.27625L7.67968 1.43207L7.75878 1.68215C7.76902 1.71453 7.73214 1.74129 7.70453 1.72156L7.49113 1.56902L7.27773 1.72156C7.25011 1.74133 7.21324 1.71453 7.22347 1.68215L7.30257 1.43207L7.09156 1.27625C7.06425 1.25609 7.07831 1.21273 7.1123 1.2125L7.37456 1.21047L7.45753 0.961641C7.46847 0.929453 7.51402 0.929453 7.52476 0.961641Z" fill="#F5F5F5"/>
<path d="M7.52476 3.03729L7.60773 3.28612L7.87 3.28815C7.90394 3.28843 7.91804 3.33175 7.8907 3.35194L7.67968 3.50776L7.75878 3.75784C7.76902 3.79022 7.73214 3.81698 7.70453 3.79725L7.49113 3.64471L7.27773 3.79725C7.25011 3.81702 7.21324 3.79022 7.22347 3.75784L7.30257 3.50776L7.09156 3.35194C7.06425 3.33178 7.07831 3.28843 7.1123 3.28815L7.37456 3.28612L7.45753 3.03729C7.46847 3.00507 7.51402 3.00507 7.52476 3.03729Z" fill="#F5F5F5"/>
<path d="M7.52476 5.33936L7.60773 5.58818L7.87 5.59021C7.90394 5.59049 7.91804 5.63381 7.8907 5.654L7.67968 5.80982L7.75878 6.0599C7.76902 6.09228 7.73214 6.11904 7.70453 6.09932L7.49113 5.94682L7.27773 6.09932C7.25011 6.11904 7.21324 6.09228 7.22347 6.0599L7.30257 5.80982L7.09156 5.654C7.06425 5.63385 7.07831 5.59049 7.1123 5.59021L7.37456 5.58818L7.45753 5.33936C7.46847 5.30713 7.51402 5.30713 7.52476 5.33936Z" fill="#F5F5F5"/>
<path d="M7.52476 7.45447L7.60773 7.7033L7.87 7.70533C7.90394 7.7056 7.91804 7.74892 7.8907 7.76912L7.67968 7.92494L7.75878 8.17501C7.76902 8.2074 7.73214 8.23416 7.70453 8.21443L7.49113 8.06189L7.27773 8.21443C7.25011 8.23416 7.21324 8.2074 7.22347 8.17501L7.30257 7.92494L7.09156 7.76912C7.06425 7.74896 7.07831 7.7056 7.1123 7.70533L7.37456 7.7033L7.45753 7.45447C7.46847 7.42224 7.51402 7.42224 7.52476 7.45447Z" fill="#F5F5F5"/>
<path d="M7.52476 9.37915L7.60773 9.62797L7.87 9.63C7.90394 9.63028 7.91804 9.6736 7.8907 9.69379L7.67968 9.84961L7.75878 10.0997C7.76902 10.1321 7.73214 10.1588 7.70453 10.1391L7.49113 9.9866L7.27773 10.1391C7.25011 10.1588 7.21324 10.1321 7.22347 10.0997L7.30257 9.84961L7.09156 9.69379C7.06425 9.67364 7.07831 9.63028 7.1123 9.63L7.37456 9.62797L7.45753 9.37915C7.46847 9.34692 7.51402 9.34692 7.52476 9.37915Z" fill="#F5F5F5"/>
<path d="M8.53497 1.94458L8.61794 2.19341L8.88025 2.19544C8.91419 2.19571 8.92829 2.23903 8.90095 2.25919L8.68993 2.41501L8.76904 2.66509C8.77927 2.69747 8.7424 2.72427 8.71478 2.7045L8.50138 2.55196L8.28798 2.7045C8.26037 2.72427 8.22349 2.69747 8.23373 2.66509L8.31283 2.41501L8.10181 2.25919C8.07451 2.23903 8.08857 2.19567 8.12252 2.19544L8.38482 2.19341L8.46779 1.94458C8.47869 1.91235 8.52423 1.91235 8.53497 1.94458Z" fill="#F5F5F5"/>
<path d="M8.53497 4.24664L8.61794 4.49547L8.88025 4.4975C8.91419 4.49778 8.92829 4.5411 8.90095 4.56129L8.68993 4.71711L8.76904 4.96719C8.77927 4.99957 8.7424 5.02637 8.71478 5.0066L8.50138 4.85407L8.28798 5.0066C8.26037 5.02637 8.22349 4.99957 8.23373 4.96719L8.31283 4.71711L8.10181 4.56129C8.07451 4.54114 8.08857 4.49778 8.12252 4.4975L8.38482 4.49547L8.46779 4.24664C8.47869 4.21442 8.52423 4.21442 8.53497 4.24664Z" fill="#F5F5F5"/>
<path d="M8.53497 6.43381L8.61794 6.68264L8.88025 6.68467C8.91419 6.68494 8.92829 6.72826 8.90095 6.74846L8.68993 6.90428L8.76904 7.15436C8.77927 7.18674 8.7424 7.2135 8.71478 7.19377L8.50138 7.04123L8.28798 7.19377C8.26037 7.21353 8.22349 7.18674 8.23373 7.15436L8.31283 6.90428L8.10181 6.74846C8.07451 6.7283 8.08857 6.68494 8.12252 6.68467L8.38482 6.68264L8.46779 6.43381C8.47869 6.40162 8.52423 6.40162 8.53497 6.43381Z" fill="#F5F5F5"/>
<path d="M8.53497 8.39795L8.61794 8.64678L8.88025 8.64881C8.91419 8.64908 8.92829 8.6924 8.90095 8.7126L8.68993 8.86842L8.76904 9.1185C8.77927 9.15088 8.7424 9.17768 8.71478 9.15791L8.50138 9.00541L8.28798 9.15791C8.26037 9.17768 8.22349 9.15088 8.23373 9.1185L8.31283 8.86842L8.10181 8.7126C8.07451 8.69244 8.08857 8.64908 8.12252 8.64881L8.38482 8.64678L8.46779 8.39795C8.47869 8.36572 8.52423 8.36572 8.53497 8.39795Z" fill="#F5F5F5"/>
<path d="M9.54523 0.961641L9.6282 1.21047L9.89047 1.2125C9.92441 1.21277 9.93852 1.25609 9.91121 1.27625L9.70019 1.43207L9.7793 1.68215C9.78953 1.71453 9.75266 1.74129 9.72504 1.72156L9.51164 1.56902L9.29824 1.72156C9.27062 1.74133 9.23375 1.71453 9.24398 1.68215L9.32308 1.43207L9.11207 1.27625C9.08476 1.25609 9.09882 1.21273 9.13277 1.2125L9.39504 1.21047L9.47801 0.961641C9.48894 0.929453 9.53449 0.929453 9.54523 0.961641Z" fill="#F5F5F5"/>
<path d="M9.54523 3.03729L9.6282 3.28612L9.89047 3.28815C9.92441 3.28843 9.93852 3.33175 9.91121 3.35194L9.70019 3.50776L9.7793 3.75784C9.78953 3.79022 9.75266 3.81698 9.72504 3.79725L9.51164 3.64471L9.29824 3.79725C9.27062 3.81702 9.23375 3.79022 9.24398 3.75784L9.32308 3.50776L9.11207 3.35194C9.08476 3.33178 9.09882 3.28843 9.13277 3.28815L9.39504 3.28612L9.47801 3.03729C9.48894 3.00507 9.53449 3.00507 9.54523 3.03729Z" fill="#F5F5F5"/>
<path d="M9.54523 5.33936L9.6282 5.58818L9.89047 5.59021C9.92441 5.59049 9.93852 5.63381 9.91121 5.654L9.70019 5.80982L9.7793 6.0599C9.78953 6.09228 9.75266 6.11904 9.72504 6.09932L9.51164 5.94682L9.29824 6.09932C9.27062 6.11904 9.23375 6.09228 9.24398 6.0599L9.32308 5.80982L9.11207 5.654C9.08476 5.63385 9.09882 5.59049 9.13277 5.59021L9.39504 5.58818L9.47801 5.33936C9.48894 5.30713 9.53449 5.30713 9.54523 5.33936Z" fill="#F5F5F5"/>
<path d="M9.54523 7.45447L9.6282 7.7033L9.89047 7.70533C9.92441 7.7056 9.93852 7.74892 9.91121 7.76912L9.70019 7.92494L9.7793 8.17501C9.78953 8.2074 9.75266 8.23416 9.72504 8.21443L9.51164 8.06189L9.29824 8.21443C9.27062 8.23416 9.23375 8.2074 9.24398 8.17501L9.32308 7.92494L9.11207 7.76912C9.08476 7.74896 9.09882 7.7056 9.13277 7.70533L9.39504 7.7033L9.47801 7.45447C9.48894 7.42224 9.53449 7.42224 9.54523 7.45447Z" fill="#F5F5F5"/>
<path d="M9.54523 9.37915L9.6282 9.62797L9.89047 9.63C9.92441 9.63028 9.93852 9.6736 9.91121 9.69379L9.70019 9.84961L9.7793 10.0997C9.78953 10.1321 9.75266 10.1588 9.72504 10.1391L9.51164 9.9866L9.29824 10.1391C9.27062 10.1588 9.23375 10.1321 9.24398 10.0997L9.32308 9.84961L9.11207 9.69379C9.08476 9.67364 9.09882 9.63028 9.13277 9.63L9.39504 9.62797L9.47801 9.37915C9.48894 9.34692 9.53449 9.34692 9.54523 9.37915Z" fill="#F5F5F5"/>
</g>
<defs>
<clipPath id="clip0">
<rect width="20" height="20" fill="white"/>
</clipPath>
</defs>
</svg>
